<?xml version="1.0" standalone="no"?>
<!DOCTYPE svg PUBLIC "-//W3C//DTD SVG 20010904//EN"
 "http://www.w3.org/TR/2001/REC-SVG-20010904/DTD/svg10.dtd">
<svg version="1.0" xmlns="http://www.w3.org/2000/svg"
 width="2550.000000pt" height="641.000000pt" viewBox="0 0 2550.000000 641.000000"
 preserveAspectRatio="xMidYMid meet">

<g transform="translate(0.000000,641.000000) scale(0.100000,-0.100000)"
fill="#000000" stroke="none">
<path d="M0 3205 l0 -3205 12750 0 12750 0 0 3205 0 3205 -12750 0 -12750 0 0
-3205z m9182 1165 c104 -29 129 -170 40 -238 l-35 -27 -881 -5 c-984 -6 -901
1 -987 -77 -131 -118 -143 -391 -25 -529 19 -22 58 -53 87 -69 l54 -30 877 -5
c867 -5 877 -5 905 -26 15 -11 36 -36 46 -55 32 -62 2 -152 -60 -178 -21 -8
-271 -11 -948 -9 l-920 3 -60 29 c-87 42 -200 159 -248 257 -100 204 -104 457
-9 646 86 170 227 287 376 312 75 13 1743 13 1788 1z m2598 -6 c79 -32 108
-140 54 -203 -14 -18 -36 -37 -48 -44 -16 -9 -234 -13 -911 -17 -1009 -6 -923
2 -1017 -91 -66 -66 -92 -152 -86 -288 3 -86 8 -106 36 -164 24 -47 47 -77 79
-102 88 -67 54 -65 1005 -65 725 0 864 -2 893 -14 47 -20 75 -69 75 -130 0
-43 -4 -53 -39 -87 l-39 -39 -944 2 -943 3 -69 34 c-172 85 -300 298 -322 535
-11 128 28 295 98 414 43 73 149 179 216 215 102 55 103 55 1049 56 778 1 877
-1 913 -15z m2296 5 c96 -18 161 -55 245 -138 186 -186 245 -463 154 -724 -53
-152 -160 -279 -292 -344 l-77 -38 -771 0 -770 0 -70 34 c-142 69 -264 231
-312 411 -27 101 -24 275 5 370 38 119 89 207 167 285 80 80 148 120 238 140
81 17 1390 21 1483 4z m2649 1 c90 -15 179 -63 255 -139 207 -208 251 -563
103 -831 -51 -92 -161 -198 -248 -241 l-70 -34 -771 0 -770 0 -75 37 c-134 66
-243 200 -296 363 -34 107 -43 270 -19 378 52 234 236 434 428 466 74 12 1388
13 1463 1z m2690 -1 c211 -39 350 -232 315 -438 -21 -124 -98 -224 -218 -283
l-67 -33 -852 -3 -853 -3 0 -205 0 -206 -39 -39 c-34 -35 -44 -39 -87 -39 -61
0 -110 28 -130 75 -20 49 -21 1049 0 1098 16 39 45 65 82 77 44 13 1778 12
1849 -1z m2828 -13 c63 -42 78 -140 30 -197 -49 -57 -61 -59 -415 -59 -317 0
-324 -1 -373 -24 -65 -30 -112 -77 -144 -146 -26 -55 -26 -56 -31 -385 -5
-300 -7 -333 -24 -361 -25 -42 -65 -64 -118 -64 -60 0 -102 28 -123 83 -15 40
-16 79 -12 353 4 281 6 316 26 383 12 40 30 90 41 112 11 21 20 41 20 44 0 3
-213 5 -472 5 -312 0 -486 4 -512 11 -72 20 -114 87 -99 160 7 37 62 96 95
102 13 2 487 4 1053 3 994 -1 1031 -2 1058 -20z m2580 0 c37 -25 57 -66 57
-116 0 -53 -22 -95 -63 -117 -30 -17 -95 -18 -959 -21 l-926 -2 -31 -29 c-51
-48 -40 -138 22 -173 17 -10 219 -14 892 -18 l870 -5 65 -31 c83 -39 145 -101
184 -184 28 -59 31 -74 31 -165 0 -88 -3 -107 -27 -157 -34 -74 -112 -152
-186 -186 l-57 -27 -953 -3 c-1053 -3 -991 -6 -1032 61 -39 64 -15 154 51 189
32 17 82 18 949 18 878 0 916 1 946 19 44 27 60 71 45 122 -24 79 42 73 -936
79 l-871 5 -76 38 c-88 43 -136 92 -179 181 -105 219 31 487 271 535 25 5 459
8 965 8 886 -2 921 -3 948 -21z m-15719 -507 c76 -67 63 -179 -26 -225 -41
-21 -1512 -21 -1563 0 -74 31 -101 144 -48 206 14 18 36 36 47 40 12 5 366 9
788 9 l767 1 35 -31z m11384 -996 c-2451 -2 -6465 -2 -8920 0 -2455 1 -449 2
4457 2 4906 0 6914 -1 4463 -2z m-12423 -387 c38 -23 75 -74 75 -105 0 -6 -16
-11 -36 -11 -27 0 -43 8 -68 35 -29 30 -40 35 -78 35 -79 0 -128 -58 -128
-150 0 -98 44 -150 127 -150 45 0 77 20 98 61 l16 29 -50 0 c-52 0 -66 15 -54
60 5 18 14 20 89 20 l84 0 0 -120 0 -120 -25 0 c-20 0 -27 6 -31 30 l-6 30
-33 -29 c-54 -47 -126 -51 -207 -10 -114 58 -131 280 -28 373 22 19 52 38 67
42 16 3 33 8 38 10 25 10 111 -8 150 -30z m6384 3 c38 -21 81 -81 81 -113 0
-26 -77 -22 -85 4 -10 32 -54 60 -94 60 -72 0 -111 -53 -111 -150 0 -97 39
-150 111 -150 43 0 84 29 93 65 6 22 12 25 47 25 41 0 41 0 35 -32 -18 -95
-136 -159 -233 -128 -99 33 -138 94 -138 220 0 75 3 91 27 131 28 47 61 75
107 90 40 13 117 2 160 -22z m706 20 c98 -27 144 -97 145 -218 0 -128 -53
-200 -161 -223 -75 -15 -131 2 -185 56 -51 51 -69 106 -61 193 7 71 22 106 65
146 53 50 122 66 197 46z m1479 1 c45 -10 102 -62 111 -102 7 -27 5 -28 -30
-28 -28 0 -44 7 -65 30 -23 25 -36 30 -74 30 -33 0 -52 -6 -66 -20 -42 -42
-24 -61 81 -89 108 -29 124 -36 149 -68 18 -23 21 -37 17 -76 -7 -82 -62 -121
-172 -121 -47 0 -81 6 -103 18 -37 19 -72 70 -72 104 0 19 5 22 40 22 26 0 40
-4 40 -13 0 -7 9 -23 20 -35 40 -42 170 -22 170 26 0 32 -17 43 -95 63 -110
29 -153 52 -163 90 -20 78 19 147 95 167 50 13 70 13 117 2z m3401 -1 c98 -27
144 -97 145 -218 0 -128 -53 -200 -161 -223 -75 -15 -131 2 -185 56 -51 51
-69 106 -61 193 7 71 22 106 65 146 53 50 122 66 197 46z m3607 1 c62 -18 128
-87 128 -135 0 -25 -77 -21 -85 5 -10 32 -54 60 -94 60 -72 0 -111 -53 -111
-150 0 -97 39 -150 111 -150 43 0 84 29 93 65 5 21 12 25 46 25 45 0 49 -9 26
-63 -41 -99 -180 -134 -278 -71 -60 38 -83 93 -83 194 0 75 3 91 28 132 47 80
128 113 219 88z m-14806 -215 c41 -115 74 -213 74 -217 0 -5 -20 -8 -44 -8
-43 0 -44 0 -56 45 l-13 45 -87 0 -88 0 -14 -42 c-14 -41 -17 -43 -56 -46 -23
-2 -42 0 -42 5 0 7 96 282 136 391 l16 43 50 -3 50 -3 74 -210z m728 201 c79
-33 103 -130 46 -188 l-30 -30 22 -18 c18 -15 23 -30 26 -91 2 -41 9 -80 14
-86 8 -10 -1 -13 -41 -13 l-51 0 0 63 c0 94 -13 107 -106 107 l-74 0 0 -85 0
-85 -40 0 -40 0 0 220 0 220 120 0 c80 0 132 -5 154 -14z m746 -11 c55 -32 80
-92 80 -190 -1 -171 -61 -224 -257 -225 l-103 0 0 221 0 221 123 -3 c100 -3
128 -8 157 -24z m790 -15 l0 -40 -120 0 -120 0 0 -45 0 -45 110 0 110 0 0 -40
0 -40 -110 0 -110 0 0 -55 0 -55 125 0 125 0 0 -40 0 -40 -165 0 -165 0 0 220
0 220 160 0 160 0 0 -40z m550 -96 c116 -209 109 -208 110 -21 l0 157 40 0 41
0 -1 -206 c-1 -114 -4 -213 -7 -220 -3 -9 -20 -14 -43 -14 l-39 0 -86 153
c-48 83 -91 156 -96 162 -5 5 -9 -54 -9 -153 l0 -162 -34 0 c-26 0 -35 5 -40
23 -3 12 -6 111 -6 220 l0 197 48 0 47 0 75 -136z m1340 111 c55 -32 80 -92
80 -190 -1 -171 -61 -224 -257 -225 l-103 0 0 221 0 221 123 -3 c100 -3 128
-8 157 -24z m780 -15 l0 -40 -120 0 -120 0 0 -45 0 -45 110 0 110 0 0 -40 0
-40 -110 0 -110 0 0 -55 0 -55 124 0 123 0 0 -40 0 -40 -163 0 -164 0 0 220 0
220 160 0 160 0 0 -40z m2194 26 c79 -33 103 -130 46 -188 l-30 -30 22 -18
c18 -15 23 -30 26 -91 2 -41 9 -80 14 -86 8 -10 -1 -13 -41 -13 l-51 0 0 63
c0 94 -13 107 -106 107 l-74 0 0 -85 0 -85 -40 0 -40 0 0 220 0 220 120 0 c80
0 132 -5 154 -14z m1936 -11 c55 -32 80 -92 80 -190 -1 -171 -61 -224 -257
-225 l-103 0 0 221 0 221 123 -3 c100 -3 128 -8 157 -24z m780 -15 l0 -40
-120 0 -120 0 0 -45 0 -45 110 0 110 0 0 -40 0 -40 -110 0 -110 0 0 -55 0 -55
125 0 125 0 0 -40 0 -40 -165 0 -165 0 0 220 0 220 160 0 160 0 0 -40z m668
16 c57 -30 77 -108 47 -184 -22 -54 -62 -75 -157 -80 l-78 -5 0 -73 0 -74 -40
0 -40 0 0 221 0 221 118 -4 c87 -3 125 -8 150 -22z m1532 -16 l0 -40 -65 0
-65 0 0 -180 0 -180 -45 0 c-37 0 -44 3 -43 18 1 9 0 90 0 180 l-2 162 -65 0
-65 0 0 40 0 40 175 0 175 0 0 -40z m1390 -180 l0 -220 -45 0 -45 0 0 220 0
220 45 0 45 0 0 -220z m560 84 c116 -209 109 -208 110 -21 l0 157 40 0 41 0
-2 -220 -1 -220 -43 0 -43 0 -87 153 c-48 83 -91 156 -96 162 -5 5 -9 -54 -9
-153 l0 -162 -39 0 -39 0 -1 220 -2 220 48 0 48 0 75 -136z m-1510 -259 c0
-62 -22 -110 -59 -130 -38 -19 -42 -2 -6 27 14 11 25 28 25 39 0 14 -7 19 -25
19 -23 0 -25 4 -25 45 l0 45 45 0 45 0 0 -45z m2920 0 l0 -45 -45 0 -45 0 0
45 0 45 45 0 45 0 0 -45z"/>
<path d="M12623 4084 c-99 -36 -174 -140 -192 -269 -26 -184 42 -336 178 -399
45 -21 60 -21 701 -24 455 -2 671 0 707 8 157 34 239 167 231 374 -6 151 -56
241 -165 296 l-48 25 -685 2 c-585 1 -691 -1 -727 -13z"/>
<path d="M15287 4086 c-137 -50 -200 -156 -201 -336 -1 -142 18 -195 94 -272
93 -93 57 -89 836 -86 l669 3 51 27 c66 35 128 105 151 171 27 78 24 243 -6
319 -25 65 -81 127 -143 160 l-43 23 -685 2 c-559 2 -692 0 -723 -11z"/>
<path d="M17742 3993 l3 -108 805 -3 c549 -2 817 1 842 8 49 14 78 52 78 102
0 32 -7 47 -34 74 l-34 34 -831 0 -832 0 3 -107z"/>
<path d="M15020 2393 c-60 -55 -60 -184 0 -245 31 -31 87 -38 134 -16 34 15
66 83 66 138 0 55 -32 123 -66 138 -45 21 -101 15 -134 -15z"/>
<path d="M19900 2393 c-60 -55 -60 -184 0 -245 31 -31 87 -38 134 -16 34 15
66 83 66 138 0 55 -32 123 -66 138 -45 21 -101 15 -134 -15z"/>
<path d="M8681 2318 c-13 -40 -26 -79 -28 -85 -4 -10 11 -13 55 -13 l59 0 -26
85 c-14 47 -28 85 -31 85 -3 0 -17 -33 -29 -72z"/>
<path d="M9370 2355 l0 -55 78 0 c85 0 112 14 112 57 0 39 -31 53 -113 53
l-77 0 0 -55z"/>
<path d="M10110 2270 l0 -140 63 0 c72 0 102 16 123 66 29 68 10 180 -34 203
-12 6 -50 11 -86 11 l-66 0 0 -140z"/>
<path d="M12790 2270 l0 -140 63 0 c72 0 102 16 123 66 29 68 10 180 -34 203
-12 6 -50 11 -86 11 l-66 0 0 -140z"/>
<path d="M15770 2355 l0 -55 78 0 c85 0 112 14 112 57 0 39 -31 53 -113 53
l-77 0 0 -55z"/>
<path d="M17700 2270 l0 -140 63 0 c72 0 102 16 123 66 29 68 10 180 -34 203
-12 6 -50 11 -86 11 l-66 0 0 -140z"/>
<path d="M19160 2345 l0 -65 63 0 c73 0 97 17 97 68 0 48 -22 62 -96 62 l-64
0 0 -65z"/>
</g>
</svg>
