<svg width="40" height="40" xmlns="http://www.w3.org/2000/svg"><g fill="none" fill-rule="evenodd"><path fill="#FFF" d="M-12-95h262v286H-12z"/><path d="M-18-93a8 8 0 0 1 8-8h260a8 8 0 0 1 8 8v284a8 8 0 0 1-8 8H-10a8 8 0 0 1-8-8V-93zm8 0v284h260V-93H-10z" fill="#E4E4E4" fill-rule="nonzero"/><g><rect fill="#F96302" width="40" height="40" rx="1"/><path d="M27.5 19.5h3v13h-3v-13zm-15 10v3h-3v-3h3zm6 0v3h-3v-3h3zm6 0v3h-3v-3h3zm-12-5v3h-3v-3h3zm6 0v3h-3v-3h3zm6 0v3h-3v-3h3zm-12-5v3h-3v-3h3zm6 0v3h-3v-3h3zm6 0v3h-3v-3h3zm-12-5v3h-3v-3h3zm6 0v3h-3v-3h3zm6 0v3h-3v-3h3zm5.951-7v5H9.5v-5h20.951zm1.05-3H7.5v31h25v-31h-.998z" fill="#FFF"/></g></g></svg>